<svg width="111" height="26" viewBox="0 0 111 26" fill="none" xmlns="http://www.w3.org/2000/svg">
<path d="M21.5638 3.76214C20.8872 3.0815 20.0831 2.54177 19.1978 2.17398C18.3124 1.80619 17.3633 1.61761 16.4051 1.61909L8.06831 1.61909C6.13346 1.61909 4.27786 2.39002 2.90971 3.76227C1.54157 5.13453 0.772949 6.99572 0.772949 8.93638C0.772949 10.8771 1.54157 12.7382 2.90971 14.1105C4.27786 15.4828 6.13346 16.2537 8.06831 16.2537H9.10972V17.2991C9.10972 19.2398 9.87833 21.101 11.2465 22.4732C12.6146 23.8455 14.4702 24.6164 16.4051 24.6164C18.3399 24.6164 20.1955 23.8455 21.5637 22.4732C22.9318 21.101 23.7004 19.2398 23.7004 17.2991V8.93638C23.7017 7.97526 23.5136 7.02336 23.147 6.13539C22.7803 5.24742 22.2423 4.44088 21.5638 3.76214V3.76214ZM9.10972 8.93638V13.8298L8.06831 13.8298C6.77438 13.8298 5.53345 13.3143 4.6185 12.3966C3.70355 11.4789 3.18954 10.2342 3.18954 8.93638C3.18954 7.63856 3.70355 6.3939 4.6185 5.4762C5.53345 4.5585 6.77438 4.04294 8.06831 4.04294L10.9828 4.04294C9.77514 5.38473 9.10758 7.12872 9.10972 8.93638V8.93638ZM13.1504 5.29513L20.0354 12.2008C19.579 12.7117 19.0207 13.1208 18.3967 13.4018L11.9531 6.93878C12.2335 6.31311 12.6414 5.75323 13.1504 5.29513V5.29513ZM11.5263 9.93887L15.4065 13.8298H11.5263V9.93887ZM21.2839 17.2991C21.2839 18.597 20.7698 19.8416 19.8549 20.7593C18.9399 21.677 17.699 22.1926 16.4051 22.1926C15.1112 22.1926 13.8702 21.677 12.9553 20.7593C12.0403 19.8416 11.5263 18.597 11.5263 17.2991V16.2537H16.4051C18.2073 16.2563 19.9461 15.5871 21.2839 14.3759V17.2991ZM21.1845 9.92514L15.4193 4.14356C16.1333 3.99603 16.8711 4.01089 17.5786 4.18707C18.2861 4.36325 18.9452 4.69625 19.5074 5.16159C19.6278 5.26127 19.7433 5.36676 19.854 5.47806C19.9087 5.53293 19.9625 5.58965 20.0154 5.64726C20.5319 6.2179 20.9069 6.90267 21.11 7.64596C21.3131 8.38924 21.3386 9.17011 21.1845 9.92514L21.1845 9.92514Z" fill="#1A202C"/>
<path d="M15.4066 13.8303H11.5264V9.93933L15.4066 13.8303Z" fill="#FFC520"/>
<path d="M20.0355 12.2006C19.579 12.7115 19.0207 13.1206 18.3968 13.4016L11.9531 6.93857C12.2336 6.31291 12.6414 5.75302 13.1505 5.29492L20.0355 12.2006Z" fill="#FFC520"/>
<path d="M21.284 8.93654C21.2844 9.26865 21.2511 9.59994 21.1846 9.92529L15.4194 4.14371C16.1334 3.99618 16.8712 4.01105 17.5787 4.18722C18.2862 4.3634 18.9453 4.6964 19.5076 5.16174C19.6279 5.26143 19.7435 5.36692 19.8541 5.47822C19.9088 5.53308 19.9626 5.5898 20.0155 5.64742C20.8326 6.54669 21.285 7.71984 21.284 8.93654Z" fill="#FFC520"/>
<path d="M10.9827 4.04358C9.77506 5.38537 9.1075 7.12936 9.10964 8.93702V13.8305H8.06823C6.7743 13.8305 5.53336 13.3149 4.61841 12.3972C3.70347 11.4795 3.18945 10.2348 3.18945 8.93702C3.18945 7.6392 3.70347 6.39453 4.61841 5.47683C5.53336 4.55914 6.7743 4.04358 8.06823 4.04358H10.9827Z" fill="white"/>
<path d="M21.2834 14.3764V17.2997C21.2834 18.5975 20.7694 19.8422 19.8545 20.7598C18.9395 21.6775 17.6986 22.1931 16.4047 22.1931C15.1107 22.1931 13.8698 21.6775 12.9548 20.7598C12.0399 19.8422 11.5259 18.5975 11.5259 17.2997V16.2542H16.4047C18.2068 16.2568 19.9456 15.5876 21.2834 14.3764V14.3764Z" fill="white"/>
<path d="M34.5593 14.6398H37.2242L41.0617 8.38511H46.1251L40.813 16.6712L47.2265 25.4918H41.8612L37.0821 18.5957H34.5593V25.4918H30.0112V0.401978H34.5593V14.6398Z" fill="#1A202C"/>
<path d="M55.1106 8.02856C60.3516 8.02856 64.2246 11.8954 64.2246 16.9384C64.2246 21.9991 60.3516 25.8481 55.1106 25.8481C49.8874 25.8481 45.9966 21.9991 45.9966 16.9384C45.9966 11.8954 49.8874 8.02856 55.1106 8.02856ZM55.1106 21.7139C57.7933 21.7139 59.6942 19.6826 59.6942 16.9384C59.6942 14.2119 57.7933 12.1805 55.1106 12.1805C52.4457 12.1805 50.5269 14.2119 50.5269 16.9384C50.5269 19.6826 52.4457 21.7139 55.1106 21.7139Z" fill="#1A202C"/>
<path d="M70.6892 25.4918H66.1411V0.401978H70.6892V25.4918Z" fill="#1A202C"/>
<path d="M80.6391 8.02856C78.1797 8.02856 75.8333 8.64047 74.4746 9.27799V13.3921C75.7002 12.697 78.0101 12.0558 80.0537 12.0558C82.7183 12.0558 84.1218 12.9467 84.1218 15.1382V15.8306C83.0236 15.5558 81.8959 15.4182 80.7641 15.4209C76.1625 15.4209 73.0894 17.2237 73.0894 20.7698C73.0894 23.9592 75.505 25.848 78.7916 25.848C81.1188 25.848 83.198 24.7257 84.2285 23.2284L84.2057 25.4913H88.6695V14.7824C88.6695 10.2027 85.8097 8.02856 80.6391 8.02856ZM84.0324 19.3256C84.0324 21.3085 82.0964 22.3906 80.2133 22.3906C78.6493 22.3906 77.5833 21.7137 77.5833 20.3417C77.5833 18.8801 79.0579 18.2033 81.0659 18.2033C82.0683 18.1927 83.0671 18.3248 84.0324 18.5957L84.0324 19.3256Z" fill="#1A202C"/>
<path d="M96.3963 23.6758L96.3074 25.4933H91.8481V0.385681H96.3252V10.4537C97.4445 9.02815 99.2033 8.03025 101.939 8.03025C106.772 8.03025 110.2 11.7189 110.2 16.9222C110.2 22.0899 106.772 25.8498 101.939 25.8498C99.4343 25.8498 97.4978 24.9766 96.3963 23.6758ZM101.015 21.7513C103.716 21.7513 105.635 19.6129 105.635 16.9043C105.635 14.1424 103.734 12.1287 101.015 12.1287C98.3328 12.1287 96.3785 14.178 96.3785 16.9043C96.3785 19.6129 98.315 21.7513 101.015 21.7513H101.015Z" fill="#1A202C"/>
</svg>
